<mxfile host="app.diagrams.net" modified="2023-09-22T06:54:00.062Z" agent="Mozilla/5.0 (Windows NT 10.0; Win64; x64) AppleWebKit/537.36 (KHTML, like Gecko) Chrome/115.0.0.0 Safari/537.36 Edg/115.0.1901.183" etag="4wD-w8eBoM4G8mbIw5X5" version="21.8.0" type="github">
  <diagram name="HomePage" id="-rVS1paRAslWvYF2sDM_">
    <mxGraphModel dx="862" dy="585" grid="1" gridSize="10" guides="1" tooltips="1" connect="1" arrows="1" fold="1" page="1" pageScale="1" pageWidth="850" pageHeight="1100" math="0" shadow="0">
      <root>
        <mxCell id="0" />
        <mxCell id="1" parent="0" />
      </root>
    </mxGraphModel>
  </diagram>
</mxfile>
